<svg width="22" height="22" viewBox="0 0 22 22" fill="none" xmlns="http://www.w3.org/2000/svg">
<path d="M8.47917 2.61905V8.47917H2.61905C1.83004 8.47917 1.61086 8.46944 1.45489 8.41487C1.12575 8.2997 0.86697 8.04091 0.7518 7.71178C0.697225 7.55581 0.6875 7.33663 0.6875 6.54762C0.6875 4.6614 0.697225 3.89361 0.906121 3.29662C1.2977 2.17755 2.17755 1.2977 3.29662 0.906121C3.89361 0.697225 4.6614 0.6875 6.54762 0.6875C7.33663 0.6875 7.55581 0.697225 7.71178 0.7518C8.04091 0.86697 8.2997 1.12575 8.41487 1.45489C8.46944 1.61086 8.47917 1.83004 8.47917 2.61905Z" fill="white"/>
<path d="M8.47917 2.61905V8.47917H2.61905C1.83004 8.47917 1.61086 8.46944 1.45489 8.41487C1.12575 8.2997 0.86697 8.04091 0.7518 7.71178C0.697225 7.55581 0.6875 7.33663 0.6875 6.54762C0.6875 4.6614 0.697225 3.89361 0.906121 3.29662C1.2977 2.17755 2.17755 1.2977 3.29662 0.906121C3.89361 0.697225 4.6614 0.6875 6.54762 0.6875C7.33663 0.6875 7.55581 0.697225 7.71178 0.7518C8.04091 0.86697 8.2997 1.12575 8.41487 1.45489C8.46944 1.61086 8.47917 1.83004 8.47917 2.61905Z" stroke="#695AE0" stroke-width="1.375"/>
<path d="M8.47917 18.4643V12.6042H2.61905C1.83004 12.6042 1.61086 12.6139 1.45489 12.6685C1.12575 12.7836 0.86697 13.0424 0.7518 13.3716C0.697225 13.5275 0.6875 13.7467 0.6875 14.5357C0.6875 16.4219 0.697225 17.1897 0.906121 17.7867C1.2977 18.9058 2.17755 19.7856 3.29662 20.1772C3.89361 20.3861 4.6614 20.3958 6.54762 20.3958C7.33663 20.3958 7.55581 20.3861 7.71178 20.3315C8.04091 20.2164 8.2997 19.9576 8.41487 19.6285C8.46944 19.4725 8.47917 19.2533 8.47917 18.4643Z" fill="white"/>
<path d="M8.47917 18.4643V12.6042H2.61905C1.83004 12.6042 1.61086 12.6139 1.45489 12.6685C1.12575 12.7836 0.86697 13.0424 0.7518 13.3716C0.697225 13.5275 0.6875 13.7467 0.6875 14.5357C0.6875 16.4219 0.697225 17.1897 0.906121 17.7867C1.2977 18.9058 2.17755 19.7856 3.29662 20.1772C3.89361 20.3861 4.6614 20.3958 6.54762 20.3958C7.33663 20.3958 7.55581 20.3861 7.71178 20.3315C8.04091 20.2164 8.2997 19.9576 8.41487 19.6285C8.46944 19.4725 8.47917 19.2533 8.47917 18.4643Z" stroke="#695AE0" stroke-width="1.375"/>
<path d="M12.6045 2.61905V8.47917H18.4646C19.2536 8.47917 19.4728 8.46944 19.6287 8.41487C19.9579 8.2997 20.2166 8.04091 20.3318 7.71178C20.3864 7.55581 20.3961 7.33663 20.3961 6.54762C20.3961 4.6614 20.3864 3.89361 20.1775 3.29662C19.7859 2.17755 18.9061 1.2977 17.787 0.906121C17.19 0.697225 16.4222 0.6875 14.536 0.6875C13.747 0.6875 13.5278 0.697225 13.3718 0.7518C13.0427 0.86697 12.7839 1.12575 12.6688 1.45489C12.6142 1.61086 12.6045 1.83004 12.6045 2.61905Z" fill="white"/>
<path d="M12.6045 2.61905V8.47917H18.4646C19.2536 8.47917 19.4728 8.46944 19.6287 8.41487C19.9579 8.2997 20.2166 8.04091 20.3318 7.71178C20.3864 7.55581 20.3961 7.33663 20.3961 6.54762C20.3961 4.6614 20.3864 3.89361 20.1775 3.29662C19.7859 2.17755 18.9061 1.2977 17.787 0.906121C17.19 0.697225 16.4222 0.6875 14.536 0.6875C13.747 0.6875 13.5278 0.697225 13.3718 0.7518C13.0427 0.86697 12.7839 1.12575 12.6688 1.45489C12.6142 1.61086 12.6045 1.83004 12.6045 2.61905Z" stroke="#695AE0" stroke-width="1.375"/>
<path d="M12.6045 18.4643V12.6042H18.4646C19.2536 12.6042 19.4728 12.6139 19.6287 12.6685C19.9579 12.7836 20.2166 13.0424 20.3318 13.3716C20.3864 13.5275 20.3961 13.7467 20.3961 14.5357C20.3961 16.4219 20.3864 17.1897 20.1775 17.7867C19.7859 18.9058 18.9061 19.7856 17.787 20.1772C17.19 20.3861 16.4222 20.3958 14.536 20.3958C13.747 20.3958 13.5278 20.3861 13.3718 20.3315C13.0427 20.2164 12.7839 19.9576 12.6688 19.6285C12.6142 19.4725 12.6045 19.2533 12.6045 18.4643Z" fill="white"/>
<path d="M12.6045 18.4643V12.6042H18.4646C19.2536 12.6042 19.4728 12.6139 19.6287 12.6685C19.9579 12.7836 20.2166 13.0424 20.3318 13.3716C20.3864 13.5275 20.3961 13.7467 20.3961 14.5357C20.3961 16.4219 20.3864 17.1897 20.1775 17.7867C19.7859 18.9058 18.9061 19.7856 17.787 20.1772C17.19 20.3861 16.4222 20.3958 14.536 20.3958C13.747 20.3958 13.5278 20.3861 13.3718 20.3315C13.0427 20.2164 12.7839 19.9576 12.6688 19.6285C12.6142 19.4725 12.6045 19.2533 12.6045 18.4643Z" stroke="#695AE0" stroke-width="1.375"/>
</svg>
